<svg width="21" height="20" viewBox="0 0 21 20" fill="none" xmlns="http://www.w3.org/2000/svg">
<g clip-path="url(#clip0_3566_835)">
<path d="M10.8352 5.16238C12.495 5.16238 13.8405 4.37984 13.8405 3.41452C13.8405 2.44921 12.495 1.66667 10.8352 1.66667C9.17545 1.66667 7.82994 2.44921 7.82994 3.41452C7.82994 4.37984 9.17545 5.16238 10.8352 5.16238Z" fill="#E6007A"/>
<path d="M10.8352 18.3322C12.495 18.3322 13.8405 17.5496 13.8405 16.5843C13.8405 15.619 12.495 14.8364 10.8352 14.8364C9.17545 14.8364 7.82994 15.619 7.82994 16.5843C7.82994 17.5496 9.17545 18.3322 10.8352 18.3322Z" fill="#E6007A"/>
<path d="M6.64716 7.58182C7.47705 6.14446 7.47166 4.58772 6.63513 4.10474C5.79861 3.62176 4.44771 4.39543 3.61783 5.83278C2.78795 7.27014 2.79334 8.82688 3.62986 9.30987C4.46639 9.79285 5.81728 9.01918 6.64716 7.58182Z" fill="#E6007A"/>
<path d="M18.0513 14.1659C18.8812 12.7286 18.8762 11.1721 18.0403 10.6894C17.2043 10.2068 15.8539 10.9807 15.024 12.4181C14.1941 13.8554 14.1991 15.4119 15.035 15.8946C15.871 16.3772 17.2214 15.6033 18.0513 14.1659Z" fill="#E6007A"/>
<path d="M6.63555 15.8942C7.47208 15.4112 7.47747 13.8544 6.64758 12.4171C5.8177 10.9797 4.46681 10.206 3.63028 10.689C2.79375 11.172 2.78837 12.7288 3.61825 14.1661C4.44813 15.6035 5.79903 16.3771 6.63555 15.8942Z" fill="#E6007A"/>
<path d="M18.041 9.31025C18.877 8.82759 18.8819 7.27112 18.052 5.83376C17.2221 4.3964 15.8717 3.62247 15.0357 4.10512C14.1998 4.58778 14.1948 6.14426 15.0247 7.58161C15.8546 9.01897 17.205 9.79291 18.041 9.31025Z" fill="#E6007A"/>
</g>
<defs>
<clipPath id="clip0_3566_835">
<rect width="15.6716" height="16.6667" fill="white" transform="translate(3 1.66667)"/>
</clipPath>
</defs>
</svg>
