<svg width="20" height="20" viewBox="0 0 20 20" fill="none" xmlns="http://www.w3.org/2000/svg">
<g clip-path="url(#clip0_2738_1423)">
<path d="M10 20C15.5228 20 20 15.5228 20 10C20 4.47715 15.5228 0 10 0C4.47715 0 0 4.47715 0 10C0 15.5228 4.47715 20 10 20Z" fill="#627EEA"/>
<path d="M9.99861 4.66663L9.92578 4.90973V11.9634L9.99861 12.0348L13.3311 10.0994L9.99861 4.66663Z" fill="#C0CBF6"/>
<path d="M9.99963 4.66663L6.66699 10.0994L9.99963 12.0348V8.61116V4.66663Z" fill="white"/>
<path d="M9.99907 12.6538L9.95801 12.7029V15.2156L9.99907 15.3333L13.3336 10.7194L9.99907 12.6538Z" fill="#C0CBF6"/>
<path d="M9.99963 15.3333V12.6538L6.66699 10.7194L9.99963 15.3333Z" fill="white"/>
<path d="M9.99902 12.0387L13.3316 10.1033L9.99902 8.61499V12.0387Z" fill="#8197EE"/>
<path d="M6.66699 10.1033L9.99963 12.0387V8.61499L6.66699 10.1033Z" fill="#C0CBF6"/>
</g>
<defs>
<clipPath id="clip0_2738_1423">
<rect width="20" height="20" fill="white"/>
</clipPath>
</defs>
</svg>
